<?xml version="1.0" encoding="iso-8859-1"?>
<!-- Generator: Adobe Illustrator 19.0.0, SVG Export Plug-In . SVG Version: 6.00 Build 0)  -->
<svg version="1.1" id="Layer_1" xmlns="http://www.w3.org/2000/svg" xmlns:xlink="http://www.w3.org/1999/xlink" x="0px" y="0px"
	 viewBox="0 0 512 512" style="enable-background:new 0 0 512 512;" xml:space="preserve" 
	 height="40px" width="40px">
<g>
	<g>
		<path d="M147.853,139.494c-11.235,0-20.376,9.141-20.376,20.375s9.141,20.376,20.376,20.376s20.375-9.141,20.375-20.376
			S159.088,139.494,147.853,139.494z"/>
	</g>
</g>
<g>
	<g>
		<path d="M147.853,223.608c-12.179,0-22.81,6.756-28.342,16.718h56.683C170.663,230.365,160.032,223.608,147.853,223.608z"/>
	</g>
</g>
<g>
	<g>
		<polygon points="512,409.861 512,362.431 0,362.206 0,409.861 168.229,409.861 168.229,450.612 111.804,450.612 111.804,481.959 
			400.196,481.959 400.196,450.612 343.771,450.612 343.771,409.861 		"/>
	</g>
</g>
<g>
	<g>
		<path d="M0,30.041v300.818l512,0.226V30.041H0z M211.592,271.673H84.114V256c0-23.623,12.927-44.27,32.071-55.279
			c-12.19-9.471-20.055-24.255-20.055-40.851c0-28.519,23.203-51.722,51.722-51.722c28.519,0,51.722,23.203,51.722,51.722
			c0,16.596-7.865,31.38-20.055,40.851c19.144,11.009,32.071,31.656,32.071,55.279V271.673z M292.049,271.674H256v-31.347h36.049
			V271.674z M292.049,205.584H256v-31.347h36.049V205.584z M292.049,139.493H256v-31.347h36.049V139.493z M424.229,271.674H316.082
			v-31.347h108.147V271.674z M424.229,205.584H316.082v-31.347h108.147V205.584z M424.229,139.493H316.082v-31.347h108.147V139.493z
			"/>
	</g>
</g>
<g>
</g>
<g>
</g>
<g>
</g>
<g>
</g>
<g>
</g>
<g>
</g>
<g>
</g>
<g>
</g>
<g>
</g>
<g>
</g>
<g>
</g>
<g>
</g>
<g>
</g>
<g>
</g>
<g>
</g>
</svg>
