<svg height="60px" width="60px"  viewBox="0 0 480 480" 
    xmlns="http://www.w3.org/2000/svg">
    <path d="m232 107.136719v-19.136719h16v19.136719l75.703125 37.847656 29.097656-29.113281c-63.832031-58.472656-161.769531-58.472656-225.601562 0l29.113281 29.113281zm0 0"/>
    <path d="m232 0h16v32h-16zm0 0"/>
    <path d="m248 56.160156v-16.160156h-16v16.160156c2.640625-.082031 5.359375-.160156 8-.160156s5.359375.078125 8 .160156zm0 0"/>
    <path d="m232 448h16v32h-16zm0 0"/>
    <path d="m232 423.839844v16.160156h16v-16.160156c-2.640625.082031-5.359375.160156-8 .160156s-5.359375-.078125-8-.160156zm0 0"/>
    <path d="m424.398438 232h-.796876l.398438 8.160156v.078125l-.398438 7.761719h56.398438v-16zm0 0"/>
    <path d="m109.839844 370-5.359375-5.839844-102.160157 102.160156 11.359376 11.359376 102.160156-102.160157-5.917969-5.441406zm0 0"/>
    <path d="m370 109.839844 5.519531 6 102.160157-102.160156-11.359376-11.359376-102.160156 102.160157 5.761719 5.28125zm0 0"/>
    <path d="m104.480469 115.839844 5.28125-5.761719.078125-.078125 6-5.519531-102.160156-102.160157-11.359376 11.359376zm0 0"/>
    <path d="m120 278.441406 112 74.6875v-108.121094l-112-56zm0 0"/>
    <path d="m360 189.007812-112 56v108.121094l112-74.6875zm0 0"/>
    <path d="m350.097656 176.070312-110.097656-55.046874-110.097656 55.046874 110.097656 55.050782zm0 0"/>
    <path d="m376 248v34.71875c0 2.675781-1.335938 5.171875-3.558594 6.65625l-43.050781 28.703125 34.738281 34.722656c26.265625-28.796875 41.640625-65.867187 43.464844-104.800781zm0 0"/>
    <path d="m375.519531 364.160156-5.441406 5.917969-.078125.082031-5.839844 5.359375 102.160156 102.160157 11.359376-11.359376zm0 0"/>
    <path d="m248 372.359375v19.640625h-16v-19.640625l-67.816406-45.230469-36.984375 37c63.832031 58.472656 161.769531 58.472656 225.601562 0l-37-37zm0 0"/>
    <path d="m56.398438 248-.398438-8 .398438-8h-56.398438v16zm0 0"/>
    <path d="m104 232v-55.921875c-.015625-3.042969 1.699219-5.835937 4.425781-7.199219l32.796875-16.390625-25.351562-25.289062c-26.265625 28.796875-41.640625 65.867187-43.464844 104.800781zm0 0"/>
    <path d="m371.574219 168.921875c2.726562 1.359375 4.441406 4.152344 4.425781 7.199219v55.878906h31.59375c-1.824219-38.933594-17.199219-76.003906-43.464844-104.800781l-25.34375 25.34375zm0 0"/>
    <path d="m107.558594 289.375c-2.222656-1.484375-3.558594-3.980469-3.558594-6.65625v-34.71875h-31.59375c1.824219 38.933594 17.199219 76.003906 43.464844 104.800781l34.738281-34.738281zm0 0"/>
</svg>