<svg height="40px" width="40px" viewBox="-99 0 454 454"  xmlns="http://www.w3.org/2000/svg">
<path d="m109.539062 312.582031 28.554688 51.265625.019531.042969 4.960938 8.914063c4.851562 8.734374 14.042969 14.164062 24.035156 14.195312h40.890625c15.203125-.050781 27.507812-12.378906 27.519531-27.585938l.007813-47.957031c-.011719-.945312-.402344-1.847656-1.085938-2.5-.679687-.65625-1.597656-1.007812-2.542968-.980469l-4.191407-.007812c-.664062-.046875-1.316406.1875-1.800781.644531-.644531.773438-.96875 1.765625-.90625 2.773438v2.894531c0 3.863281-3.132812 7-7 7s-7-3.136719-7-7v-19.226562c-.015625-1.105469-.886719-2.003907-1.988281-2.054688h-7.898438c-1.128906.039062-2.039062.929688-2.109375 2.054688v19.226562c0 3.863281-3.136718 7-7 7-3.867187 0-7-3.136719-7-7v-25.488281c.011719-.488281-.179687-.960938-.53125-1.304688-.351562-.339843-.832031-.519531-1.320312-.488281h-7.972656c-1.089844-.082031-2.050782.710938-2.179688 1.792969v19.226562c0 3.867188-3.132812 7-7 7s-7-3.132812-7-7v-3.019531l.335938-68.695312c-.019532-.929688-.421876-1.808594-1.109376-2.429688-.6875-.625-1.601562-.941406-2.527343-.875h-3.914063c-1.75 0-3.632812.933594-3.636718 3.132812-.046876 19.207032-.042969 56.621094-.023438 85.292969.003906 2.917969-1.804688 5.53125-4.539062 6.558594-2.734376 1.023437-5.816407.246094-7.734376-1.953125l-10.203124-11.703125c-4.113282-4.648437-11.09375-5.40625-16.109376-1.746094zm0 0"/>
<path d="m155 141.230469c0-13.347657-11.6875-24.207031-26-24.207031s-26 10.859374-26 24.207031v8.769531h52zm0 0"/>
<path d="m78.75 164-10.226562 89.03125c-.429688 3.851562.808593 7.703125 3.402343 10.585938 3 3.386718 7.292969 5.339843 11.816407 5.382812h50.371093c0-13 .015625-24.46875.035157-32.679688.015624-4.644531 1.886718-9.089843 5.199218-12.34375 3.3125-3.253906 7.792969-5.046874 12.433594-4.976562h3.917969c9.878906 0 17.625 7.480469 17.640625 17.117188 0 2.226562-.035156 17.109374-.074219 32.402343 4.332031-.082031 8.433594-1.941406 11.351563-5.144531 2.589843-2.832031 3.828124-6.644531 3.398437-10.460938l-10.230469-88.914062h-8.785156v21.78125c0 3.867188-3.132812 7-7 7s-7-3.132812-7-7v-21.78125h-52v21.78125c0 3.867188-3.132812 7-7 7s-7-3.132812-7-7v-21.78125zm0 0"/>
<path d="m208 401h-40.890625c-5.804687-.011719-11.546875-1.246094-16.839844-3.625 7.992188 10.90625 6.859375 26.011719-2.675781 35.605469-9.535156 9.589843-24.632812 10.816406-35.589844 2.882812-10.957031-7.929687-14.507812-22.65625-8.375-34.707031 6.132813-12.054688 20.128906-17.851562 32.988282-13.664062-2.230469-2.425782-4.167969-5.109376-5.769532-7.988282l-3.011718-5.5h-127.835938v55.519532c0 13.316406 10.824219 24.476562 24.144531 24.476562h207.710938c13.320312 0 24.144531-11.160156 24.144531-24.480469v-55.519531h-9.21875c-5.988281 16.242188-21.472656 27.019531-38.78125 27zm0 0"/>
<path d="m231.855469 0h-207.710938c-13.320312 0-24.144531 11.160156-24.144531 24.480469v39.519531h256v-39.519531c0-13.320313-10.824219-24.480469-24.144531-24.480469zm-70.101563 37h-67.507812c-3.863282 0-7-3.132812-7-7s3.136718-7 7-7h67.507812c3.863282 0 7 3.132812 7 7s-3.136718 7-7 7zm0 0"/>
<path d="m128 400.167969c-7.605469 0-13.769531 6.167969-13.769531 13.773437 0 7.605469 6.164062 13.769532 13.769531 13.769532s13.769531-6.164063 13.769531-13.769532c-.007812-7.601562-6.167969-13.765625-13.769531-13.773437zm0 0"/>
<path d="m0 360h120.039062l-25.660156-45.9375c-1.691406-2.992188-.894531-6.773438 1.855469-8.832031l3.667969-2.757813c10.003906-8.300781 24.589844-7.976562 34.210937.761719 0-6.757813 0-14.234375 0-20.234375h-50.371093c-8.515626-.046875-16.613282-3.707031-22.269532-10.070312-5.230468-5.910157-7.71875-13.753907-6.855468-21.59375l10.9375-95.101563c.402343-3.539063 3.390624-6.21875 6.957031-6.234375h16.488281v-8.769531c0-21.070313 17.964844-38.207031 40-38.207031s40 17.136718 40 38.207031v8.769531h15.027344c3.5625.011719 6.550781 2.691406 6.953125 6.230469l10.941406 95.113281c.90625 7.773438-1.59375 15.5625-6.855469 21.355469-.925781 1.027343-1.925781 1.988281-2.988281 2.871093 1.671875 1.125 3.117187 2.554688 4.261719 4.214844 1.539062-.503906 3.148437-.769531 4.769531-.785156h7.902344c8.472656.035156 15.449219 6.667969 15.917969 15.128906.914062-.125 1.839843-.179687 2.765624-.160156l4.199219.007812c9.671875-.019531 17.546875 7.769532 17.628907 17.445313.042968 16.515625.042968 16.765625.027343 24.886719-.007812 4.296875-.019531 10.738281-.03125 23.007812 0 .261719-.015625.683594-.023437.683594h6.503906v-282h-256zm0 0"/>
</svg>